<svg width="297" height="42" viewBox="0 0 297 42" fill="none" xmlns="http://www.w3.org/2000/svg">
<path d="M18.312 10.624C18.312 13.936 16.392 16.288 12.12 16.288H6.072V5.104H12.12C16.392 5.104 18.312 7.264 18.312 10.624ZM0.6 0.639997V34H6.072V20.656H10.248L17.928 34H24.456L16.2 20.176C21.816 18.784 23.928 14.56 23.928 10.624C23.928 5.2 20.04 0.639997 12.12 0.639997H0.6ZM42.0641 11.728C46.1441 11.728 49.3601 14.32 49.4561 18.4H34.8161C35.3921 14.224 38.3681 11.728 42.0641 11.728ZM54.4481 26.128H48.5441C47.5361 28.192 45.6641 29.824 42.3041 29.824C38.2721 29.824 35.1521 27.184 34.7681 22.816H54.9761C55.1201 21.904 55.1681 21.04 55.1681 20.128C55.1681 12.352 49.8401 7.12 42.3041 7.12C34.4801 7.12 29.1041 12.448 29.1041 20.752C29.1041 29.056 34.7201 34.432 42.3041 34.432C48.7841 34.432 52.9601 30.736 54.4481 26.128ZM79.3211 34H84.7451V18.4C84.7451 11.008 80.0891 7.12 73.8971 7.12C70.7291 7.12 67.8011 8.416 66.0251 10.576V7.552H60.5531V34H66.0251V19.216C66.0251 14.368 68.6651 11.872 72.6971 11.872C76.6811 11.872 79.3211 14.368 79.3211 19.216V34ZM89.901 20.656C89.901 28.816 95.421 34.432 102.285 34.432C106.701 34.432 109.869 32.32 111.549 30.064V34H117.069V7.552H111.549V11.392C109.917 9.232 106.845 7.12 102.381 7.12C95.421 7.12 89.901 12.496 89.901 20.656ZM111.549 20.752C111.549 26.464 107.661 29.68 103.533 29.68C99.453 29.68 95.517 26.368 95.517 20.656C95.517 14.944 99.453 11.872 103.533 11.872C107.661 11.872 111.549 15.088 111.549 20.752ZM143.024 34H148.448V18.4C148.448 11.008 143.792 7.12 137.6 7.12C134.432 7.12 131.504 8.416 129.728 10.576V7.552H124.256V34H129.728V19.216C129.728 14.368 132.368 11.872 136.4 11.872C140.384 11.872 143.024 14.368 143.024 19.216V34ZM174.34 34H184.372L170.836 16.816L183.892 0.303999H174.244L163.012 15.088V0.303999H154.804V34H163.012V19.12L174.34 34ZM186.641 20.56C186.641 29.008 191.873 34.384 198.401 34.384C202.385 34.384 205.217 32.56 206.705 30.208V34H214.913V7.216H206.705V11.008C205.265 8.656 202.433 6.832 198.449 6.832C191.873 6.832 186.641 12.112 186.641 20.56ZM206.705 20.608C206.705 24.88 203.969 27.232 200.849 27.232C197.777 27.232 194.993 24.832 194.993 20.56C194.993 16.288 197.777 13.984 200.849 13.984C203.969 13.984 206.705 16.336 206.705 20.608ZM239.331 34H247.491V18.352C247.491 11.152 243.363 6.928 237.171 6.928C233.571 6.928 230.691 8.512 229.059 10.768V7.216H220.851V34H229.059V19.456C229.059 15.808 231.075 13.792 234.195 13.792C237.315 13.792 239.331 15.808 239.331 19.456V34ZM279.643 7.216H271.435V21.76C271.435 25.408 269.419 27.424 266.251 27.424C263.179 27.424 261.115 25.408 261.115 21.76V7.216H252.955V22.864C252.955 30.016 257.131 34.288 263.323 34.288C266.923 34.288 269.803 32.656 271.435 30.352V34H279.643V7.216ZM295.619 10.816C295.619 8.272 293.651 6.304 290.771 6.304C287.843 6.304 285.875 8.272 285.875 10.816C285.875 13.264 287.843 15.232 290.771 15.232C293.651 15.232 295.619 13.264 295.619 10.816ZM284.627 41.248H290.003L296.099 25.696H287.699L284.627 41.248Z" fill="black"/>
</svg>
