<svg width="160" height="160" viewBox="0 0 160 160" fill="none" xmlns="http://www.w3.org/2000/svg">
<g clip-path="url(#clip0_2_1368)">
<rect width="20" height="20" transform="translate(20 20)" fill="#FF6A6A"/>
<rect width="20" height="20" transform="translate(40 20)" fill="#FF6A6A"/>
<rect width="20" height="20" transform="translate(80 20)" fill="#FF6A6A"/>
<rect width="20" height="20" transform="translate(100 20)" fill="#FF6A6A"/>
<rect width="20" height="20" transform="translate(0 40)" fill="#FF6A6A"/>
<rect width="20" height="20" transform="translate(20 40)" fill="#FF6A6A"/>
<rect width="20" height="20" transform="translate(40 40)" fill="#FF6A6A"/>
<rect width="20" height="20" transform="translate(60 40)" fill="#FF6A6A"/>
<rect width="20" height="20" transform="translate(80 40)" fill="#FF6A6A"/>
<rect width="20" height="20" transform="translate(100 40)" fill="#FF6A6A"/>
<rect width="20" height="20" transform="translate(120 40)" fill="#FF6A6A"/>
<rect width="20" height="20" transform="translate(0 60)" fill="#FF6A6A"/>
<rect width="20" height="20" transform="translate(20 60)" fill="#FF6A6A"/>
<rect width="20" height="20" transform="translate(40 60)" fill="#FF6A6A"/>
<rect width="20" height="20" transform="translate(60 60)" fill="#FF6A6A"/>
<rect width="20" height="20" transform="translate(80 60)" fill="#FF6A6A"/>
<rect width="20" height="20" transform="translate(100 60)" fill="#FF6A6A"/>
<rect width="20" height="20" transform="translate(120 60)" fill="#FF6A6A"/>
<rect width="20" height="20" transform="translate(0 80)" fill="#FF6A6A"/>
<rect width="20" height="20" transform="translate(20 80)" fill="#FF6A6A"/>
<rect width="20" height="20" transform="translate(40 80)" fill="#FF6A6A"/>
<rect width="20" height="20" transform="translate(60 80)" fill="#FF6A6A"/>
<rect width="20" height="20" transform="translate(80 80)" fill="#FF6A6A"/>
<rect width="20" height="20" transform="translate(100 80)" fill="#FF6A6A"/>
<rect width="20" height="20" transform="translate(120 80)" fill="#DA2E2E"/>
<rect width="20" height="20" transform="translate(20 100)" fill="#FF6A6A"/>
<rect width="20" height="20" transform="translate(40 100)" fill="#FF6A6A"/>
<rect width="20" height="20" transform="translate(60 100)" fill="#FF6A6A"/>
<rect width="20" height="20" transform="translate(80 100)" fill="#FF6A6A"/>
<rect width="20" height="20" transform="translate(100 100)" fill="#DA2E2E"/>
<rect width="20" height="20" transform="translate(40 120)" fill="#FF6A6A"/>
<rect width="20" height="20" transform="translate(60 120)" fill="#FF6A6A"/>
<rect width="20" height="20" transform="translate(80 120)" fill="#DA2E2E"/>
<rect width="20" height="20" transform="translate(60 140)" fill="#DA2E2E"/>
</g>
<defs>
<clipPath id="clip0_2_1368">
<rect width="160" height="160" fill="white"/>
</clipPath>
</defs>
</svg>
