<svg width="512" height="512" viewBox="0 0 512 512" fill="none" xmlns="http://www.w3.org/2000/svg">
<rect width="512" height="512" rx="80" fill="#0D9488" fill-opacity="0.8"/>
<path d="M156.594 347L114.994 274.72H92.3744V347H62.7344V166.3H125.134C139.001 166.3 150.701 168.727 160.234 173.58C169.941 178.433 177.134 184.933 181.814 193.08C186.668 201.227 189.094 210.327 189.094 220.38C189.094 232.167 185.628 242.913 178.694 252.62C171.934 262.153 161.448 268.653 147.234 272.12L191.954 347H156.594ZM92.3744 251.06H125.134C136.228 251.06 144.548 248.287 150.094 242.74C155.814 237.193 158.674 229.74 158.674 220.38C158.674 211.02 155.901 203.74 150.354 198.54C144.808 193.167 136.401 190.48 125.134 190.48H92.3744V251.06ZM329.452 347L268.092 266.4V347H223.632V164.48H268.092V244.56L328.932 164.48H381.192L310.472 253.92L383.792 347H329.452ZM425.981 239.62C420.607 239.62 416.101 237.8 412.461 234.16C408.821 230.52 407.001 226.013 407.001 220.64C407.001 215.267 408.821 210.76 412.461 207.12C416.101 203.48 420.607 201.66 425.981 201.66C431.181 201.66 435.601 203.48 439.241 207.12C442.881 210.76 444.701 215.267 444.701 220.64C444.701 226.013 442.881 230.52 439.241 234.16C435.601 237.8 431.181 239.62 425.981 239.62ZM447.821 311.38L416.361 383.14H397.121L415.581 311.38H447.821Z" fill="white"/>
</svg>
