<svg width="400" height="80" viewBox="0 0 400 80" fill="none" xmlns="http://www.w3.org/2000/svg">
<rect width="10" height="10" transform="translate(10 10)" fill="#BAC1FF"/>
<rect width="10" height="10" transform="translate(0 10)" fill="#BAC1FF"/>
<rect width="10" height="10" transform="translate(30 20)" fill="#BAC1FF"/>
<rect width="10" height="10" transform="translate(30 30)" fill="#BAC1FF"/>
<rect width="10" height="10" transform="translate(0 20)" fill="#BAC1FF"/>
<rect width="10" height="10" transform="translate(0 30)" fill="#BAC1FF"/>
<rect width="10" height="10" transform="translate(0 40)" fill="#BAC1FF"/>
<rect width="10" height="10" transform="translate(0 50)" fill="#BAC1FF"/>
<rect width="10" height="10" transform="translate(10 20)" fill="#BAC1FF"/>
<rect width="10" height="10" transform="translate(20 20)" fill="#BAC1FF"/>
<rect width="10" height="10" transform="translate(40 30)" fill="#BAC1FF"/>
<rect width="10" height="10" transform="translate(10 30)" fill="#BAC1FF"/>
<rect width="10" height="10" transform="translate(50 30)" fill="#BAC1FF"/>
<rect width="10" height="10" transform="translate(20 30)" fill="#BAC1FF"/>
<rect width="10" height="10" transform="translate(30 40)" fill="#BAC1FF"/>
<rect width="10" height="10" transform="translate(30 50)" fill="#BAC1FF"/>
<rect width="10" height="10" transform="translate(40 40)" fill="#BAC1FF"/>
<rect width="10" height="10" transform="translate(10 40)" fill="#BAC1FF"/>
<rect width="10" height="10" transform="translate(50 40)" fill="#BAC1FF"/>
<rect width="10" height="10" transform="translate(20 40)" fill="#BAC1FF"/>
<rect width="10" height="10" transform="translate(40 50)" fill="#5C67BC"/>
<rect width="10" height="10" transform="translate(10 50)" fill="#BAC1FF"/>
<rect width="10" height="10" transform="translate(50 50)" fill="#5C67BC"/>
<rect width="10" height="10" transform="translate(20 50)" fill="#BAC1FF"/>
<rect width="10" height="10" transform="translate(0 70)" fill="#5C67BC"/>
<rect width="10" height="10" transform="translate(0 60)" fill="#BAC1FF"/>
<rect width="10" height="10" transform="translate(10 60)" fill="#BAC1FF"/>
<rect width="10" height="10" transform="translate(20 60)" fill="#5C67BC"/>
<rect width="10" height="10" transform="translate(30 60)" fill="#5C67BC"/>
<rect width="10" height="10" transform="translate(10 70)" fill="#5C67BC"/>
<rect width="10" height="10" transform="translate(90)" fill="#BAC1FF"/>
<rect width="10" height="10" transform="translate(80)" fill="#BAC1FF"/>
<rect width="10" height="10" transform="translate(100)" fill="#BAC1FF"/>
<rect width="10" height="10" transform="translate(110)" fill="#BAC1FF"/>
<rect width="10" height="10" transform="translate(120)" fill="#BAC1FF"/>
<rect width="10" height="10" transform="translate(80 10)" fill="#BAC1FF"/>
<rect width="10" height="10" transform="translate(90 10)" fill="#BAC1FF"/>
<rect width="10" height="10" transform="translate(100 10)" fill="#BAC1FF"/>
<rect width="10" height="10" transform="translate(110 10)" fill="#BAC1FF"/>
<rect width="10" height="10" transform="translate(110 20)" fill="#5C67BC"/>
<rect width="10" height="10" transform="translate(130 10)" fill="#BAC1FF"/>
<rect width="10" height="10" transform="translate(120 10)" fill="#BAC1FF"/>
<rect width="10" height="10" transform="translate(140 10)" fill="#BAC1FF"/>
<rect width="10" height="10" transform="translate(130)" fill="#BAC1FF"/>
<rect width="10" height="10" transform="translate(80 20)" fill="#BAC1FF"/>
<rect width="10" height="10" transform="translate(90 20)" fill="#BAC1FF"/>
<rect width="10" height="10" transform="translate(100 20)" fill="#BAC1FF"/>
<rect width="10" height="10" transform="translate(120 20)" fill="#BAC1FF"/>
<rect width="10" height="10" transform="translate(130 20)" fill="#BAC1FF"/>
<rect width="10" height="10" transform="translate(140 20)" fill="#BAC1FF"/>
<rect width="10" height="10" transform="translate(80 30)" fill="#BAC1FF"/>
<rect width="10" height="10" transform="translate(90 30)" fill="#BAC1FF"/>
<rect width="10" height="10" transform="translate(100 30)" fill="#BAC1FF"/>
<rect width="10" height="10" transform="translate(120 30)" fill="#BAC1FF"/>
<rect width="10" height="10" transform="translate(130 30)" fill="#BAC1FF"/>
<rect width="10" height="10" transform="translate(140 30)" fill="#BAC1FF"/>
<rect width="10" height="10" transform="translate(80 40)" fill="#BAC1FF"/>
<rect width="10" height="10" transform="translate(90 40)" fill="#BAC1FF"/>
<rect width="10" height="10" transform="translate(100 40)" fill="#BAC1FF"/>
<rect width="10" height="10" transform="translate(120 40)" fill="#BAC1FF"/>
<rect width="10" height="10" transform="translate(130 40)" fill="#BAC1FF"/>
<rect width="10" height="10" transform="translate(140 40)" fill="#BAC1FF"/>
<rect width="10" height="10" transform="translate(80 50)" fill="#BAC1FF"/>
<rect width="10" height="10" transform="translate(80 60)" fill="#BAC1FF"/>
<rect width="10" height="10" transform="translate(90 50)" fill="#BAC1FF"/>
<rect width="10" height="10" transform="translate(100 50)" fill="#BAC1FF"/>
<rect width="10" height="10" transform="translate(110 50)" fill="#BAC1FF"/>
<rect width="10" height="10" transform="translate(110 40)" fill="#BAC1FF"/>
<rect width="10" height="10" transform="translate(120 50)" fill="#BAC1FF"/>
<rect width="10" height="10" transform="translate(130 50)" fill="#BAC1FF"/>
<rect width="10" height="10" transform="translate(140 50)" fill="#5C67BC"/>
<rect width="10" height="10" transform="translate(80 70)" fill="#5C67BC"/>
<rect width="10" height="10" transform="translate(90 60)" fill="#BAC1FF"/>
<rect width="10" height="10" transform="translate(100 60)" fill="#BAC1FF"/>
<rect width="10" height="10" transform="translate(110 60)" fill="#5C67BC"/>
<rect width="10" height="10" transform="translate(120 60)" fill="#5C67BC"/>
<rect width="10" height="10" transform="translate(130 60)" fill="#5C67BC"/>
<rect width="10" height="10" transform="translate(90 70)" fill="#5C67BC"/>
<rect width="10" height="10" transform="translate(100 70)" fill="#5C67BC"/>
<rect width="10" height="10" transform="translate(170)" fill="#BAC1FF"/>
<rect width="10" height="10" transform="translate(160)" fill="#BAC1FF"/>
<rect width="10" height="10" transform="translate(180)" fill="#BAC1FF"/>
<rect width="10" height="10" transform="translate(160 10)" fill="#BAC1FF"/>
<rect width="10" height="10" transform="translate(170 10)" fill="#BAC1FF"/>
<rect width="10" height="10" transform="translate(180 10)" fill="#BAC1FF"/>
<rect width="10" height="10" transform="translate(160 20)" fill="#BAC1FF"/>
<rect width="10" height="10" transform="translate(170 20)" fill="#BAC1FF"/>
<rect width="10" height="10" transform="translate(180 20)" fill="#BAC1FF"/>
<rect width="10" height="10" transform="translate(160 30)" fill="#BAC1FF"/>
<rect width="10" height="10" transform="translate(170 30)" fill="#BAC1FF"/>
<rect width="10" height="10" transform="translate(180 30)" fill="#BAC1FF"/>
<rect width="10" height="10" transform="translate(160 40)" fill="#BAC1FF"/>
<rect width="10" height="10" transform="translate(170 40)" fill="#BAC1FF"/>
<rect width="10" height="10" transform="translate(180 40)" fill="#BAC1FF"/>
<rect width="10" height="10" transform="translate(160 50)" fill="#BAC1FF"/>
<rect width="10" height="10" transform="translate(200 50)" fill="#BAC1FF"/>
<rect width="10" height="10" transform="translate(190 50)" fill="#BAC1FF"/>
<rect width="10" height="10" transform="translate(170 50)" fill="#BAC1FF"/>
<rect width="10" height="10" transform="translate(210 50)" fill="#BAC1FF"/>
<rect width="10" height="10" transform="translate(180 50)" fill="#BAC1FF"/>
<rect width="10" height="10" transform="translate(220 50)" fill="#BAC1FF"/>
<rect width="10" height="10" transform="translate(180 60)" fill="#BAC1FF"/>
<rect width="10" height="10" transform="translate(220 60)" fill="#BAC1FF"/>
<rect width="10" height="10" transform="translate(160 60)" fill="#BAC1FF"/>
<rect width="10" height="10" transform="translate(200 60)" fill="#BAC1FF"/>
<rect width="10" height="10" transform="translate(190 60)" fill="#BAC1FF"/>
<rect width="10" height="10" transform="translate(160 70)" fill="#5C67BC"/>
<rect width="10" height="10" transform="translate(200 70)" fill="#5C67BC"/>
<rect width="10" height="10" transform="translate(190 70)" fill="#5C67BC"/>
<rect width="10" height="10" transform="translate(170 60)" fill="#BAC1FF"/>
<rect width="10" height="10" transform="translate(210 60)" fill="#BAC1FF"/>
<rect width="10" height="10" transform="translate(170 70)" fill="#5C67BC"/>
<rect width="10" height="10" transform="translate(210 70)" fill="#5C67BC"/>
<rect width="10" height="10" transform="translate(180 70)" fill="#5C67BC"/>
<rect width="10" height="10" transform="translate(220 70)" fill="#5C67BC"/>
<rect width="10" height="10" transform="translate(250)" fill="#BAC1FF"/>
<rect width="10" height="10" transform="translate(260)" fill="#BAC1FF"/>
<rect width="10" height="10" transform="translate(270)" fill="#BAC1FF"/>
<rect width="10" height="10" transform="translate(280)" fill="#BAC1FF"/>
<rect width="10" height="10" transform="translate(290)" fill="#BAC1FF"/>
<rect width="10" height="10" transform="translate(240 10)" fill="#BAC1FF"/>
<rect width="10" height="10" transform="translate(250 10)" fill="#BAC1FF"/>
<rect width="10" height="10" transform="translate(260 10)" fill="#BAC1FF"/>
<rect width="10" height="10" transform="translate(270 10)" fill="#BAC1FF"/>
<rect width="10" height="10" transform="translate(280 10)" fill="#BAC1FF"/>
<rect width="10" height="10" transform="translate(290 10)" fill="#BAC1FF"/>
<rect width="10" height="10" transform="translate(300 10)" fill="#BAC1FF"/>
<rect width="10" height="10" transform="translate(240 20)" fill="#BAC1FF"/>
<rect width="10" height="10" transform="translate(250 20)" fill="#BAC1FF"/>
<rect width="10" height="10" transform="translate(260 20)" fill="#BAC1FF"/>
<rect width="10" height="10" transform="translate(270 20)" fill="#5C67BC"/>
<rect width="10" height="10" transform="translate(280 20)" fill="#BAC1FF"/>
<rect width="10" height="10" transform="translate(290 20)" fill="#BAC1FF"/>
<rect width="10" height="10" transform="translate(300 20)" fill="#BAC1FF"/>
<rect width="10" height="10" transform="translate(240 30)" fill="#BAC1FF"/>
<rect width="10" height="10" transform="translate(250 30)" fill="#BAC1FF"/>
<rect width="10" height="10" transform="translate(260 30)" fill="#BAC1FF"/>
<rect width="10" height="10" transform="translate(280 30)" fill="#BAC1FF"/>
<rect width="10" height="10" transform="translate(290 30)" fill="#BAC1FF"/>
<rect width="10" height="10" transform="translate(300 30)" fill="#BAC1FF"/>
<rect width="10" height="10" transform="translate(240 40)" fill="#BAC1FF"/>
<rect width="10" height="10" transform="translate(250 40)" fill="#BAC1FF"/>
<rect width="10" height="10" transform="translate(260 40)" fill="#BAC1FF"/>
<rect width="10" height="10" transform="translate(270 40)" fill="#BAC1FF"/>
<rect width="10" height="10" transform="translate(280 40)" fill="#BAC1FF"/>
<rect width="10" height="10" transform="translate(290 40)" fill="#BAC1FF"/>
<rect width="10" height="10" transform="translate(300 40)" fill="#BAC1FF"/>
<rect width="10" height="10" transform="translate(240 50)" fill="#BAC1FF"/>
<rect width="10" height="10" transform="translate(250 50)" fill="#BAC1FF"/>
<rect width="10" height="10" transform="translate(260 50)" fill="#BAC1FF"/>
<rect width="10" height="10" transform="translate(270 50)" fill="#5C67BC"/>
<rect width="10" height="10" transform="translate(280 50)" fill="#BAC1FF"/>
<rect width="10" height="10" transform="translate(290 50)" fill="#BAC1FF"/>
<rect width="10" height="10" transform="translate(300 50)" fill="#BAC1FF"/>
<rect width="10" height="10" transform="translate(240 60)" fill="#BAC1FF"/>
<rect width="10" height="10" transform="translate(250 60)" fill="#BAC1FF"/>
<rect width="10" height="10" transform="translate(260 60)" fill="#BAC1FF"/>
<rect width="10" height="10" transform="translate(280 60)" fill="#BAC1FF"/>
<rect width="10" height="10" transform="translate(290 60)" fill="#BAC1FF"/>
<rect width="10" height="10" transform="translate(300 60)" fill="#BAC1FF"/>
<rect width="10" height="10" transform="translate(240 70)" fill="#5C67BC"/>
<rect width="10" height="10" transform="translate(250 70)" fill="#5C67BC"/>
<rect width="10" height="10" transform="translate(260 70)" fill="#5C67BC"/>
<rect width="10" height="10" transform="translate(280 70)" fill="#5C67BC"/>
<rect width="10" height="10" transform="translate(290 70)" fill="#5C67BC"/>
<rect width="10" height="10" transform="translate(300 70)" fill="#5C67BC"/>
<rect width="10" height="10" transform="translate(340 70)" fill="#5C67BC"/>
<rect width="10" height="10" transform="translate(350 70)" fill="#5C67BC"/>
<rect width="10" height="10" transform="translate(340 60)" fill="#BAC1FF"/>
<rect width="10" height="10" transform="translate(350 60)" fill="#BAC1FF"/>
<rect width="10" height="10" transform="translate(360 60)" fill="#BAC1FF"/>
<rect width="10" height="10" transform="translate(360 70)" fill="#5C67BC"/>
<rect width="10" height="10" transform="translate(350 50)" fill="#BAC1FF"/>
<rect width="10" height="10" transform="translate(340 50)" fill="#BAC1FF"/>
<rect width="10" height="10" transform="translate(360 50)" fill="#BAC1FF"/>
<rect width="10" height="10" transform="translate(350 40)" fill="#BAC1FF"/>
<rect width="10" height="10" transform="translate(370 40)" fill="#5C67BC"/>
<rect width="10" height="10" transform="translate(340 40)" fill="#BAC1FF"/>
<rect width="10" height="10" transform="translate(360 40)" fill="#BAC1FF"/>
<rect width="10" height="10" transform="translate(330 40)" fill="#5C67BC"/>
<rect width="10" height="10" transform="translate(350 30)" fill="#BAC1FF"/>
<rect width="10" height="10" transform="translate(370 30)" fill="#BAC1FF"/>
<rect width="10" height="10" transform="translate(340 30)" fill="#BAC1FF"/>
<rect width="10" height="10" transform="translate(360 30)" fill="#BAC1FF"/>
<rect width="10" height="10" transform="translate(360 20)" fill="#BAC1FF"/>
<rect width="10" height="10" transform="translate(340 20)" fill="#BAC1FF"/>
<rect width="10" height="10" transform="translate(330 30)" fill="#BAC1FF"/>
<rect width="10" height="10" transform="translate(380 20)" fill="#5C67BC"/>
<rect width="10" height="10" transform="translate(330 20)" fill="#BAC1FF"/>
<rect width="10" height="10" transform="translate(370 20)" fill="#BAC1FF"/>
<rect width="10" height="10" transform="translate(320 20)" fill="#5C67BC"/>
<rect width="10" height="10" transform="translate(350 20)" fill="#BAC1FF"/>
<rect width="10" height="10" transform="translate(340 10)" fill="#BAC1FF"/>
<rect width="10" height="10" transform="translate(380 10)" fill="#BAC1FF"/>
<rect width="10" height="10" transform="translate(330 10)" fill="#BAC1FF"/>
<rect width="10" height="10" transform="translate(380)" fill="#BAC1FF"/>
<rect width="10" height="10" transform="translate(330)" fill="#BAC1FF"/>
<rect width="10" height="10" transform="translate(370 10)" fill="#BAC1FF"/>
<rect width="10" height="10" transform="translate(360 10)" fill="#BAC1FF"/>
<rect width="10" height="10" transform="translate(320 10)" fill="#BAC1FF"/>
<rect width="10" height="10" transform="translate(370)" fill="#BAC1FF"/>
<rect width="10" height="10" transform="translate(360)" fill="#BAC1FF"/>
<rect width="10" height="10" transform="translate(320)" fill="#BAC1FF"/>
<rect width="10" height="10" transform="translate(340)" fill="#BAC1FF"/>
</svg>
