<svg width="304" height="40" viewBox="0 0 304 40" fill="none" xmlns="http://www.w3.org/2000/svg">
<path d="M17.928 34L10.248 20.656H6.072V34H0.6V0.639997H12.12C14.68 0.639997 16.84 1.088 18.6 1.984C20.392 2.88 21.72 4.08 22.584 5.584C23.48 7.088 23.928 8.768 23.928 10.624C23.928 12.8 23.288 14.784 22.008 16.576C20.76 18.336 18.824 19.536 16.2 20.176L24.456 34H17.928ZM6.072 16.288H12.12C14.168 16.288 15.704 15.776 16.728 14.752C17.784 13.728 18.312 12.352 18.312 10.624C18.312 8.896 17.8 7.552 16.776 6.592C15.752 5.6 14.2 5.104 12.12 5.104H6.072V16.288ZM55.1681 20.128C55.1681 21.12 55.1041 22.016 54.9761 22.816H34.7681C34.9281 24.928 35.7121 26.624 37.1201 27.904C38.5281 29.184 40.2561 29.824 42.3041 29.824C45.2481 29.824 47.3281 28.592 48.5441 26.128H54.4481C53.6481 28.56 52.1921 30.56 50.0801 32.128C48.0001 33.664 45.4081 34.432 42.3041 34.432C39.7761 34.432 37.5041 33.872 35.4881 32.752C33.5041 31.6 31.9361 30 30.7841 27.952C29.6641 25.872 29.1041 23.472 29.1041 20.752C29.1041 18.032 29.6481 15.648 30.7361 13.6C31.8561 11.52 33.4081 9.92 35.3921 8.8C37.4081 7.68 39.7121 7.12 42.3041 7.12C44.8001 7.12 47.0241 7.664 48.9761 8.752C50.9281 9.84 52.4481 11.376 53.5361 13.36C54.6241 15.312 55.1681 17.568 55.1681 20.128ZM49.4561 18.4C49.4241 16.384 48.7041 14.768 47.2961 13.552C45.8881 12.336 44.1441 11.728 42.0641 11.728C40.1761 11.728 38.5601 12.336 37.2161 13.552C35.8721 14.736 35.0721 16.352 34.8161 18.4H49.4561ZM73.8971 7.12C75.9771 7.12 77.8331 7.552 79.4651 8.416C81.1291 9.28 82.4251 10.56 83.3531 12.256C84.2811 13.952 84.7451 16 84.7451 18.4V34H79.3211V19.216C79.3211 16.848 78.7291 15.04 77.5451 13.792C76.3611 12.512 74.7451 11.872 72.6971 11.872C70.6491 11.872 69.0171 12.512 67.8011 13.792C66.6171 15.04 66.0251 16.848 66.0251 19.216V34H60.5531V7.552H66.0251V10.576C66.9211 9.488 68.0571 8.64 69.4331 8.032C70.8411 7.424 72.3291 7.12 73.8971 7.12ZM89.901 20.656C89.901 18 90.445 15.648 91.533 13.6C92.653 11.552 94.157 9.968 96.045 8.848C97.965 7.696 100.077 7.12 102.381 7.12C104.461 7.12 106.269 7.536 107.805 8.368C109.373 9.168 110.621 10.176 111.549 11.392V7.552H117.069V34H111.549V30.064C110.621 31.312 109.357 32.352 107.757 33.184C106.157 34.016 104.333 34.432 102.285 34.432C100.013 34.432 97.933 33.856 96.045 32.704C94.157 31.52 92.653 29.888 91.533 27.808C90.445 25.696 89.901 23.312 89.901 20.656ZM111.549 20.752C111.549 18.928 111.165 17.344 110.397 16C109.661 14.656 108.685 13.632 107.469 12.928C106.253 12.224 104.941 11.872 103.533 11.872C102.125 11.872 100.813 12.224 99.597 12.928C98.381 13.6 97.389 14.608 96.621 15.952C95.885 17.264 95.517 18.832 95.517 20.656C95.517 22.48 95.885 24.08 96.621 25.456C97.389 26.832 98.381 27.888 99.597 28.624C100.845 29.328 102.157 29.68 103.533 29.68C104.941 29.68 106.253 29.328 107.469 28.624C108.685 27.92 109.661 26.896 110.397 25.552C111.165 24.176 111.549 22.576 111.549 20.752ZM137.6 7.12C139.68 7.12 141.536 7.552 143.168 8.416C144.832 9.28 146.128 10.56 147.056 12.256C147.984 13.952 148.448 16 148.448 18.4V34H143.024V19.216C143.024 16.848 142.432 15.04 141.248 13.792C140.064 12.512 138.448 11.872 136.4 11.872C134.352 11.872 132.72 12.512 131.504 13.792C130.32 15.04 129.728 16.848 129.728 19.216V34H124.256V7.552H129.728V10.576C130.624 9.488 131.76 8.64 133.136 8.032C134.544 7.424 136.032 7.12 137.6 7.12ZM174.772 34L164.884 19.264V34H154.228V0.0159998H164.884V14.32L174.628 0.0159998H186.676L174.964 16.288L187.444 34H174.772ZM189.023 20.464C189.023 17.616 189.503 15.152 190.463 13.072C191.455 10.96 192.799 9.36 194.495 8.272C196.191 7.152 198.095 6.592 200.207 6.592C201.967 6.592 203.487 6.96 204.767 7.696C206.047 8.4 207.023 9.376 207.695 10.624V6.928H218.303V34H207.695V30.304C207.023 31.552 206.047 32.544 204.767 33.28C203.487 33.984 201.967 34.336 200.207 34.336C198.095 34.336 196.191 33.792 194.495 32.704C192.799 31.584 191.455 29.984 190.463 27.904C189.503 25.792 189.023 23.312 189.023 20.464ZM207.695 20.464C207.695 19.024 207.327 17.904 206.591 17.104C205.855 16.304 204.911 15.904 203.759 15.904C202.607 15.904 201.663 16.304 200.927 17.104C200.191 17.904 199.823 19.024 199.823 20.464C199.823 21.904 200.191 23.024 200.927 23.824C201.663 24.624 202.607 25.024 203.759 25.024C204.911 25.024 205.855 24.624 206.591 23.824C207.327 23.024 207.695 21.904 207.695 20.464ZM242.048 6.736C245.152 6.736 247.568 7.776 249.296 9.856C251.056 11.936 251.936 14.752 251.936 18.304V34H241.328V19.648C241.328 18.368 240.976 17.36 240.272 16.624C239.6 15.856 238.688 15.472 237.536 15.472C236.352 15.472 235.424 15.856 234.752 16.624C234.08 17.36 233.744 18.368 233.744 19.648V34H223.088V6.928H233.744V11.056C234.576 9.776 235.68 8.736 237.056 7.936C238.464 7.136 240.128 6.736 242.048 6.736ZM285.212 6.928V34H274.556V29.872C273.724 31.152 272.604 32.192 271.196 32.992C269.82 33.792 268.172 34.192 266.252 34.192C263.148 34.192 260.716 33.152 258.956 31.072C257.228 28.992 256.364 26.176 256.364 22.624V6.928H266.972V21.28C266.972 22.56 267.308 23.584 267.98 24.352C268.684 25.088 269.612 25.456 270.764 25.456C271.948 25.456 272.876 25.088 273.548 24.352C274.22 23.584 274.556 22.56 274.556 21.28V6.928H285.212ZM297.033 16.096C295.177 16.096 293.689 15.6 292.569 14.608C291.449 13.616 290.889 12.368 290.889 10.864C290.889 9.328 291.449 8.064 292.569 7.072C293.689 6.048 295.177 5.536 297.033 5.536C298.857 5.536 300.329 6.048 301.449 7.072C302.569 8.064 303.129 9.328 303.129 10.864C303.129 12.368 302.569 13.616 301.449 14.608C300.329 15.6 298.857 16.096 297.033 16.096ZM302.505 25.504L297.561 39.76H290.841L293.097 25.504H302.505Z" fill="white"/>
</svg>
